# xmcd
# 
# Track frame offsets:
#     150
#     12037
#     31320
#     45165
#     59265
#     73095
#     88957
#     101717
#     120940
#     135237
#     148440
#     158930
#     167732
#     183010
#     203572
#     217215
#     231057
#     243665
#     254675
#     267827
#     285282
#     296347
#     308835
#     326385
# 
# Disc length: 4565
# 
# Revision: 13
# Processed by: cddbd v1.5.2PL0 Copyright (c) Steve Scherf et al.
# Submitted via: fre:ac v1.1beta1pre5
# 
DISCID=5611d318
DTITLE=Various Artist - Dusty - The Very Best Of Dusty Springfield
DYEAR=1998
DGENRE=Pop - 1960s
TTITLE0=Springfield, Dusty - I Only Want To Be With You
TTITLE1=Springfield, Dusty - In Private
TTITLE2=Springfield, Dusty - I Just Don't Know What To Do With Myself
TTITLE3=Springfield, Dusty - Give Me Time
TTITLE4=Springfield, Dusty - Some Of Your Lovin'
TTITLE5=Springfield, Dusty - Goin' Back
TTITLE6=Springfield, Dusty - You Don't Have To Say You Love Me
TTITLE7=Pet Shop Boys featuring Springfield, Dusty - What Have I Done To Deserve This
TTITLE8=Springfield, Dusty - I Close My Eyes And Count To Ten
TTITLE9=Springfield, Dusty - Wishin' And Hopin'
TTITLE10=Springfield, Dusty - Little By Little
TTITLE11=Springfield, Dusty - Stay Awhile
TTITLE12=Springfield, Dusty - All I See Is You
TTITLE13=Springfield, Dusty - Nothing Has Been Proved
TTITLE14=Springfield, Dusty - Losing You
TTITLE15=Springfield, Dusty - Twenty Four Hours From Tulsa
TTITLE16=Springfield, Dusty - In The Middle Of Nowhere
TTITLE17=Springfield, Dusty - Son Of A Preacher Man
TTITLE18=Springfield, Dusty - Anyone Who Had A Heart
TTITLE19=Springfield, Dusty - If You Go Away
TTITLE20=Springfield, Dusty - I'll Try Anything
TTITLE21=Springfield, Dusty - How Can I Be Sure
TTITLE22=Springfield, Dusty - Wherever Would I Be
TTITLE23=Springfield, Dusty - The Look Of Love
EXTD=YEAR: 1998
EXTT0=
EXTT1=
EXTT2=
EXTT3=
EXTT4=
EXTT5=
EXTT6=
EXTT7=
EXTT8=
EXTT9=
EXTT10=
EXTT11=
EXTT12=
EXTT13=
EXTT14=
EXTT15=
EXTT16=
EXTT17=
EXTT18=
EXTT19=
EXTT20=
EXTT21=
EXTT22=
EXTT23=
PLAYORDER=
